<svg width="80" height="80" viewBox="0 0 80 80" fill="none" xmlns="http://www.w3.org/2000/svg">
<path d="M1.575 70.537L20.275 79.7813C20.869 80.0729 21.531 80.0729 22.125 79.7813L40 70.9992L57.775 79.7505C58.369 80.0421 59.031 80.0421 59.625 79.7505L78.325 70.5062C78.8049 70.2996 79.2224 69.9176 79.5216 69.4111C79.8209 68.9046 79.9878 68.2977 80 67.6713V44.5605C79.9946 44.191 79.9353 43.8257 79.825 43.482C79.7884 43.3763 79.7466 43.2734 79.7 43.1739C79.6154 42.9508 79.506 42.7434 79.375 42.5576L79.175 42.3111C79.0016 42.1022 78.7981 41.935 78.575 41.818C78.575 41.818 78.575 41.818 78.45 41.818L61.25 33.2208V12.2055C61.2446 11.8359 61.1853 11.4706 61.075 11.127C61.0434 11.0185 61.0015 10.915 60.95 10.8188C60.8654 10.5958 60.756 10.3884 60.625 10.2025L60.425 9.95602C60.2516 9.74713 60.0481 9.57992 59.825 9.46299C59.825 9.46299 59.825 9.46299 59.7 9.46299L40.95 0.218684C40.356 -0.0728947 39.694 -0.0728947 39.1 0.218684L20.35 9.46299C20.1269 9.57992 19.9234 9.74713 19.75 9.95602C19.679 10.0231 19.6195 10.1069 19.575 10.2025C19.4362 10.3874 19.3184 10.5947 19.225 10.8188C19.2205 10.9215 19.2205 11.0243 19.225 11.127C19.0096 11.4436 18.8481 11.8103 18.75 12.2055V33.2208L1.575 41.6948C1.575 41.6948 1.575 41.6948 1.45 41.6948C1.22687 41.8117 1.02339 41.9789 0.850001 42.1878C0.777184 42.262 0.71022 42.3446 0.650001 42.4343C0.518968 42.6202 0.409582 42.8276 0.325001 43.0506V43.3588C0.150313 43.7273 0.0396414 44.1365 1.17199e-06 44.5605V67.6713C-0.000483533 68.2884 0.149388 68.8915 0.430203 69.4025C0.711018 69.9134 1.10984 70.3087 1.575 70.537ZM37.5 65.5759L23.75 72.3551V55.9002L37.5 49.1827V65.5759ZM56.25 72.3551L42.5 65.5759V49.1827L56.25 55.9618V72.3551ZM75 65.5759L61.25 72.3551V55.9002L75 49.1827V65.5759ZM70.775 44.5605L58.75 50.4769L46.725 44.5605L58.75 38.6442L70.775 44.5605ZM56.25 33.2208L42.5 39.9384V23.5451L56.25 16.766V33.2208ZM40 6.28911L52.025 12.2055L40 18.1218L27.975 12.2055L40 6.28911ZM23.75 16.766L37.5 23.5451V39.9384L23.75 33.1592V16.766ZM21.25 38.6442L33.275 44.5605L21.25 50.4769L9.225 44.5605L21.25 38.6442ZM5 49.1827L18.75 55.9618V72.4167L5 65.5759V49.1827Z" fill="#00FFAA"/>
</svg>
