<svg width="938" height="271" viewBox="0 0 938 271" fill="none" xmlns="http://www.w3.org/2000/svg">
<path d="M156.942 46L79 1L1.05774 46L79 91L156.942 46Z" fill="url(#paint0_linear_22_19)"/>
<path d="M1.05774 136L79 181L79 91L1.05774 46V136Z" fill="url(#paint1_linear_22_19)"/>
<path d="M79 181L156.942 136L79 91L79 181Z" fill="url(#paint2_linear_22_19)"/>
<path d="M312.885 46L234.942 1L157 46L234.942 91L273.913 68.5L312.885 46Z" fill="url(#paint3_linear_22_19)"/>
<path d="M157 136L234.942 181V136V91L157 46V136Z" fill="url(#paint4_linear_22_19)"/>
<path d="M312.885 136V91L273.913 113.5L312.885 136Z" fill="url(#paint5_linear_22_19)"/>
<path d="M234.942 91V136L273.913 113.5L312.885 91L273.913 68.5L234.942 91Z" fill="url(#paint6_linear_22_19)"/>
<path d="M312.885 91V46L273.913 68.5L312.885 91Z" fill="url(#paint7_linear_22_19)"/>
<path d="M468.885 136V46L429.913 68.5L390.942 91V181L468.885 136Z" fill="url(#paint8_linear_22_19)"/>
<path d="M390.942 1L313 46L351.971 113.5L390.942 181V91L429.913 68.5L390.942 1Z" fill="url(#paint9_linear_22_19)"/>
<path d="M313 46V136L351.971 113.5L313 46Z" fill="url(#paint10_linear_22_19)"/>
<path d="M469 91V136L507.971 113.5L469 91Z" fill="url(#paint11_linear_22_19)"/>
<path d="M624.885 46L546.942 1L469 46L507.971 68.5L546.942 91L624.885 46Z" fill="url(#paint12_linear_22_19)"/>
<path d="M624.885 136V46L546.942 91V136V181L624.885 136Z" fill="url(#paint13_linear_22_19)"/>
<path d="M546.942 136V91L507.971 68.5L469 91L507.971 113.5L546.942 136Z" fill="url(#paint14_linear_22_19)"/>
<path d="M469 46V91L507.971 68.5L469 46Z" fill="url(#paint15_linear_22_19)"/>
<path d="M625 136L702.942 181V91L625 46V136Z" fill="url(#paint16_linear_22_19)"/>
<path d="M702.942 181L780.885 136L702.942 91V181Z" fill="url(#paint17_linear_22_19)"/>
<path d="M936.885 46L858.942 1L781 46H936.885Z" fill="url(#paint18_linear_22_19)"/>
<path d="M936.885 136V46L858.942 91V181L936.885 136Z" fill="url(#paint19_linear_22_19)"/>
<path d="M781 136L858.942 181V91L781 46V136Z" fill="url(#paint20_linear_22_19)"/>
<path d="M79 181L156.942 136L79 91M79 181L1.05774 136V46M79 181L79 91M1.05774 46L79 1L156.942 46L79 91M1.05774 46L79 91M312.885 46L234.942 1L157 46M312.885 46V91M312.885 46L273.913 68.5M157 46V136L234.942 181V136M157 46L234.942 91M234.942 91V136M234.942 91L273.913 68.5M234.942 136L273.913 113.5M312.885 91V136L273.913 113.5M312.885 91L273.913 113.5M312.885 91L273.913 68.5M390.942 181L468.885 136V46L429.913 68.5M390.942 181V91L429.913 68.5M390.942 181L351.971 113.5M313 46V136L351.971 113.5M313 46L390.942 1L429.913 68.5M313 46L351.971 113.5M624.885 46L546.942 1L469 46M624.885 46V136L546.942 181V136M624.885 46L546.942 91M469 46V91M469 46L507.971 68.5M546.942 91V136M546.942 91L507.971 68.5M469 91V136L507.971 113.5M469 91L507.971 113.5M469 91L507.971 68.5M546.942 136L507.971 113.5M780.885 46V136M780.885 136L702.942 181M780.885 136L702.942 91M702.942 181L625 136V46L702.942 91M702.942 181V91M936.885 46L858.942 1L781 46M936.885 46V136L858.942 181M936.885 46L858.942 91M936.885 46H781M858.942 181L781 136V46M858.942 181V91M781 46L858.942 91" stroke="url(#paint21_linear_22_19)" stroke-width="1.5" stroke-linecap="round" stroke-linejoin="round"/>
<path d="M4.672 216V192.384H11.8C13.552 192.384 15.076 192.612 16.372 193.068C17.692 193.5 18.712 194.22 19.432 195.228C20.176 196.236 20.548 197.604 20.548 199.332C20.548 200.988 20.176 202.356 19.432 203.436C18.712 204.492 17.692 205.296 16.372 205.848C15.052 206.376 13.528 206.64 11.8 206.64H7.66V216H4.672ZM7.66 204.192H11.44C13.504 204.192 15.028 203.796 16.012 203.004C17.02 202.212 17.524 200.988 17.524 199.332C17.524 197.628 17.02 196.452 16.012 195.804C15.004 195.132 13.48 194.796 11.44 194.796H7.66V204.192ZM32.5219 216V198.504H34.9699L35.2219 202.644H35.3299C36.2419 201.228 37.3699 200.112 38.7139 199.296C40.0579 198.48 41.5339 198.072 43.1419 198.072C43.7899 198.072 44.3899 198.132 44.9419 198.252C45.5179 198.348 46.0699 198.528 46.5979 198.792L45.9139 201.348C45.3139 201.132 44.7979 200.976 44.3659 200.88C43.9339 200.784 43.3699 200.736 42.6739 200.736C41.3539 200.736 40.0819 201.12 38.8579 201.888C37.6579 202.632 36.5299 203.916 35.4739 205.74V216H32.5219ZM64.3319 216.432C62.7959 216.432 61.3679 216.072 60.0479 215.352C58.7519 214.632 57.6959 213.588 56.8799 212.22C56.0879 210.852 55.6919 209.208 55.6919 207.288C55.6919 205.32 56.0879 203.652 56.8799 202.284C57.6959 200.916 58.7519 199.872 60.0479 199.152C61.3679 198.432 62.7959 198.072 64.3319 198.072C65.8679 198.072 67.2839 198.432 68.5799 199.152C69.8999 199.872 70.9559 200.916 71.7479 202.284C72.5639 203.652 72.9719 205.32 72.9719 207.288C72.9719 209.208 72.5639 210.852 71.7479 212.22C70.9559 213.588 69.8999 214.632 68.5799 215.352C67.2839 216.072 65.8679 216.432 64.3319 216.432ZM64.3319 213.984C65.4599 213.984 66.4439 213.708 67.2839 213.156C68.1239 212.58 68.7719 211.788 69.2279 210.78C69.6839 209.772 69.9119 208.608 69.9119 207.288C69.9119 205.944 69.6839 204.768 69.2279 203.76C68.7719 202.728 68.1239 201.936 67.2839 201.384C66.4439 200.808 65.4599 200.52 64.3319 200.52C63.2039 200.52 62.2199 200.808 61.3799 201.384C60.5639 201.936 59.9159 202.728 59.4359 203.76C58.9799 204.768 58.7519 205.944 58.7519 207.288C58.7519 208.608 58.9799 209.772 59.4359 210.78C59.9159 211.788 60.5639 212.58 61.3799 213.156C62.2199 213.708 63.2039 213.984 64.3319 213.984ZM86.7818 223.812C85.8698 223.812 84.9818 223.692 84.1178 223.452C83.2538 223.236 82.4738 222.96 81.7778 222.624L82.7498 220.428C83.3738 220.74 84.0218 220.98 84.6938 221.148C85.3898 221.316 86.0738 221.4 86.7458 221.4C87.9218 221.4 88.8218 221.208 89.4458 220.824C90.0938 220.464 90.5378 219.924 90.7778 219.204C91.0418 218.484 91.1738 217.632 91.1738 216.648V200.916H83.0378V198.504H94.1258V216.432C94.1258 217.512 94.0058 218.496 93.7658 219.384C93.5258 220.296 93.1298 221.076 92.5778 221.724C92.0258 222.396 91.2698 222.912 90.3098 223.272C89.3738 223.632 88.1978 223.812 86.7818 223.812ZM92.3258 194.832C91.6538 194.832 91.0898 194.628 90.6338 194.22C90.1778 193.788 89.9498 193.224 89.9498 192.528C89.9498 191.832 90.1778 191.28 90.6338 190.872C91.0898 190.44 91.6538 190.224 92.3258 190.224C92.9978 190.224 93.5618 190.44 94.0178 190.872C94.4738 191.28 94.7018 191.832 94.7018 192.528C94.7018 193.224 94.4738 193.788 94.0178 194.22C93.5618 194.628 92.9978 194.832 92.3258 194.832ZM117.944 216.432C116.192 216.432 114.596 216.072 113.156 215.352C111.74 214.632 110.612 213.588 109.772 212.22C108.932 210.828 108.512 209.16 108.512 207.216C108.512 205.32 108.932 203.688 109.772 202.32C110.612 200.952 111.704 199.908 113.048 199.188C114.416 198.444 115.88 198.072 117.44 198.072C119.12 198.072 120.548 198.42 121.724 199.116C122.924 199.788 123.836 200.736 124.46 201.96C125.108 203.184 125.432 204.624 125.432 206.28C125.432 206.616 125.42 206.94 125.396 207.252C125.372 207.564 125.336 207.84 125.288 208.08H110.492V205.776H123.524L122.768 206.604C122.768 204.54 122.288 202.992 121.328 201.96C120.392 200.928 119.12 200.412 117.512 200.412C116.432 200.412 115.424 200.676 114.488 201.204C113.576 201.732 112.844 202.5 112.292 203.508C111.74 204.516 111.464 205.752 111.464 207.216C111.464 208.728 111.764 209.988 112.364 210.996C112.964 212.004 113.78 212.772 114.812 213.3C115.844 213.804 117.008 214.056 118.304 214.056C119.36 214.056 120.308 213.912 121.148 213.624C122.012 213.312 122.84 212.904 123.632 212.4L124.712 214.344C123.848 214.92 122.852 215.412 121.724 215.82C120.62 216.228 119.36 216.432 117.944 216.432ZM144.786 216.432C142.962 216.432 141.318 216.072 139.854 215.352C138.414 214.632 137.274 213.588 136.434 212.22C135.618 210.852 135.21 209.208 135.21 207.288C135.21 205.32 135.654 203.652 136.542 202.284C137.43 200.916 138.606 199.872 140.07 199.152C141.558 198.432 143.19 198.072 144.966 198.072C146.406 198.072 147.642 198.324 148.674 198.828C149.73 199.332 150.618 199.932 151.338 200.628L149.862 202.536C149.142 201.912 148.398 201.42 147.63 201.06C146.862 200.7 146.01 200.52 145.074 200.52C143.73 200.52 142.542 200.808 141.51 201.384C140.478 201.936 139.674 202.728 139.098 203.76C138.546 204.768 138.27 205.944 138.27 207.288C138.27 208.608 138.546 209.772 139.098 210.78C139.65 211.788 140.43 212.58 141.438 213.156C142.47 213.708 143.658 213.984 145.002 213.984C146.082 213.984 147.066 213.768 147.954 213.336C148.866 212.904 149.682 212.388 150.402 211.788L151.734 213.696C150.774 214.56 149.694 215.232 148.494 215.712C147.318 216.192 146.082 216.432 144.786 216.432ZM172.78 216.432C171.076 216.432 169.732 216.132 168.748 215.532C167.764 214.908 167.056 214.056 166.624 212.976C166.216 211.896 166.012 210.636 166.012 209.196V200.916H161.08V198.684L166.12 198.504L166.516 192.888H168.964V198.504H177.568V200.916H168.964V209.232C168.964 210.264 169.096 211.14 169.36 211.86C169.624 212.58 170.08 213.12 170.728 213.48C171.376 213.84 172.264 214.02 173.392 214.02C174.232 214.02 174.988 213.948 175.66 213.804C176.332 213.66 176.98 213.468 177.604 213.228L178.252 215.388C177.46 215.676 176.62 215.916 175.732 216.108C174.868 216.324 173.884 216.432 172.78 216.432ZM223.764 216.432C222.3 216.432 220.944 216.156 219.696 215.604C218.448 215.052 217.356 214.26 216.42 213.228C215.484 212.172 214.752 210.888 214.224 209.376C213.72 207.84 213.468 206.112 213.468 204.192C213.468 201.672 213.924 199.5 214.836 197.676C215.748 195.828 216.996 194.412 218.58 193.428C220.164 192.444 221.988 191.952 224.052 191.952C225.468 191.952 226.728 192.252 227.832 192.852C228.936 193.428 229.824 194.088 230.496 194.832L228.804 196.74C228.204 196.068 227.508 195.54 226.716 195.156C225.924 194.772 225.036 194.58 224.052 194.58C222.54 194.58 221.22 194.976 220.092 195.768C218.988 196.536 218.124 197.628 217.5 199.044C216.876 200.46 216.564 202.152 216.564 204.12C216.564 206.112 216.876 207.828 217.5 209.268C218.124 210.708 218.988 211.824 220.092 212.616C221.22 213.408 222.54 213.804 224.052 213.804C225.132 213.804 226.104 213.576 226.968 213.12C227.832 212.664 228.636 212.016 229.38 211.176L231.072 213.012C230.16 214.092 229.104 214.932 227.904 215.532C226.704 216.132 225.324 216.432 223.764 216.432ZM246.249 216.432C245.169 216.432 244.173 216.24 243.261 215.856C242.349 215.448 241.629 214.872 241.101 214.128C240.573 213.384 240.309 212.496 240.309 211.464C240.309 209.496 241.293 208.008 243.261 207C245.229 205.968 248.469 205.272 252.981 204.912C252.957 204.12 252.789 203.388 252.477 202.716C252.189 202.044 251.709 201.516 251.037 201.132C250.365 200.724 249.465 200.52 248.337 200.52C247.593 200.52 246.849 200.628 246.105 200.844C245.385 201.036 244.689 201.3 244.017 201.636C243.369 201.948 242.769 202.272 242.217 202.608L241.065 200.592C241.641 200.208 242.337 199.824 243.153 199.44C243.993 199.032 244.893 198.708 245.853 198.468C246.813 198.204 247.809 198.072 248.841 198.072C250.449 198.072 251.769 198.372 252.801 198.972C253.857 199.572 254.637 200.412 255.141 201.492C255.669 202.548 255.933 203.808 255.933 205.272V216H253.521L253.269 213.624H253.161C252.201 214.392 251.121 215.052 249.921 215.604C248.721 216.156 247.497 216.432 246.249 216.432ZM247.041 214.056C248.049 214.056 249.045 213.828 250.029 213.372C251.013 212.916 251.997 212.28 252.981 211.464V206.856C250.485 207.072 248.517 207.372 247.077 207.756C245.661 208.14 244.653 208.632 244.053 209.232C243.477 209.808 243.189 210.48 243.189 211.248C243.189 211.896 243.369 212.436 243.729 212.868C244.089 213.276 244.557 213.576 245.133 213.768C245.733 213.96 246.369 214.056 247.041 214.056ZM267.007 216V198.504H269.455L269.707 201.492H269.851C270.763 200.508 271.747 199.692 272.803 199.044C273.859 198.396 275.071 198.072 276.439 198.072C278.503 198.072 280.027 198.672 281.011 199.872C281.995 201.072 282.487 202.824 282.487 205.128V216H279.535V205.524C279.535 203.868 279.223 202.644 278.599 201.852C277.975 201.036 276.943 200.628 275.503 200.628C274.471 200.628 273.547 200.892 272.731 201.42C271.915 201.948 270.991 202.74 269.959 203.796V216H267.007ZM298.781 216.432C297.701 216.432 296.705 216.24 295.793 215.856C294.881 215.448 294.161 214.872 293.633 214.128C293.105 213.384 292.841 212.496 292.841 211.464C292.841 209.496 293.825 208.008 295.793 207C297.761 205.968 301.001 205.272 305.513 204.912C305.489 204.12 305.321 203.388 305.009 202.716C304.721 202.044 304.241 201.516 303.569 201.132C302.897 200.724 301.997 200.52 300.869 200.52C300.125 200.52 299.381 200.628 298.637 200.844C297.917 201.036 297.221 201.3 296.549 201.636C295.901 201.948 295.301 202.272 294.749 202.608L293.597 200.592C294.173 200.208 294.869 199.824 295.685 199.44C296.525 199.032 297.425 198.708 298.385 198.468C299.345 198.204 300.341 198.072 301.373 198.072C302.981 198.072 304.301 198.372 305.333 198.972C306.389 199.572 307.169 200.412 307.673 201.492C308.201 202.548 308.465 203.808 308.465 205.272V216H306.053L305.801 213.624H305.693C304.733 214.392 303.653 215.052 302.453 215.604C301.253 216.156 300.029 216.432 298.781 216.432ZM299.573 214.056C300.581 214.056 301.577 213.828 302.561 213.372C303.545 212.916 304.529 212.28 305.513 211.464V206.856C303.017 207.072 301.049 207.372 299.609 207.756C298.193 208.14 297.185 208.632 296.585 209.232C296.009 209.808 295.721 210.48 295.721 211.248C295.721 211.896 295.901 212.436 296.261 212.868C296.621 213.276 297.089 213.576 297.665 213.768C298.265 213.96 298.901 214.056 299.573 214.056ZM330.807 216.432C328.959 216.432 327.543 215.904 326.559 214.848C325.575 213.768 325.083 212.196 325.083 210.132V192.78H319.107V190.368H328.035V210.348C328.035 211.62 328.347 212.544 328.971 213.12C329.595 213.696 330.423 213.984 331.455 213.984C331.959 213.984 332.475 213.924 333.003 213.804C333.531 213.66 334.119 213.444 334.767 213.156L335.523 215.388C334.731 215.676 333.987 215.916 333.291 216.108C332.595 216.324 331.767 216.432 330.807 216.432ZM347.173 223.524C346.789 223.524 346.381 223.488 345.949 223.416C345.541 223.344 345.181 223.26 344.869 223.164L345.481 220.824C345.721 220.896 345.973 220.956 346.237 221.004C346.525 221.052 346.801 221.076 347.065 221.076C348.289 221.076 349.285 220.716 350.053 219.996C350.821 219.3 351.421 218.412 351.853 217.332L352.393 216.036L344.221 198.504H347.209L351.493 208.188C351.829 208.956 352.177 209.784 352.537 210.672C352.921 211.536 353.293 212.4 353.653 213.264H353.797C354.109 212.424 354.421 211.572 354.733 210.708C355.069 209.82 355.381 208.98 355.669 208.188L359.485 198.504H362.293L354.589 217.44C354.157 218.592 353.617 219.624 352.969 220.536C352.321 221.472 351.517 222.204 350.557 222.732C349.621 223.26 348.493 223.524 347.173 223.524ZM12.52 261.432C11.656 261.432 10.732 261.228 9.748 260.82C8.788 260.388 7.9 259.8 7.084 259.056H6.976L6.724 261H4.348V235.368H7.3V242.352L7.192 245.736H7.3C8.092 244.92 9.004 244.272 10.036 243.792C11.092 243.312 12.136 243.072 13.168 243.072C14.752 243.072 16.084 243.444 17.164 244.188C18.244 244.908 19.06 245.94 19.612 247.284C20.164 248.604 20.44 250.164 20.44 251.964C20.44 253.956 20.068 255.66 19.324 257.076C18.604 258.492 17.644 259.572 16.444 260.316C15.244 261.06 13.936 261.432 12.52 261.432ZM12.052 258.948C13.06 258.948 13.96 258.672 14.752 258.12C15.568 257.568 16.204 256.776 16.66 255.744C17.14 254.688 17.38 253.44 17.38 252C17.38 250.728 17.212 249.612 16.876 248.652C16.54 247.668 16.012 246.912 15.292 246.384C14.572 245.832 13.624 245.556 12.448 245.556C11.656 245.556 10.816 245.772 9.928 246.204C9.064 246.612 8.188 247.272 7.3 248.184V256.896C8.14 257.64 8.98 258.168 9.82 258.48C10.684 258.792 11.428 258.948 12.052 258.948ZM38.0659 261.432C36.5299 261.432 35.1019 261.072 33.7819 260.352C32.4859 259.632 31.4299 258.588 30.6139 257.22C29.8219 255.852 29.4259 254.208 29.4259 252.288C29.4259 250.32 29.8219 248.652 30.6139 247.284C31.4299 245.916 32.4859 244.872 33.7819 244.152C35.1019 243.432 36.5299 243.072 38.0659 243.072C39.6019 243.072 41.0179 243.432 42.3139 244.152C43.6339 244.872 44.6899 245.916 45.4819 247.284C46.2979 248.652 46.7059 250.32 46.7059 252.288C46.7059 254.208 46.2979 255.852 45.4819 257.22C44.6899 258.588 43.6339 259.632 42.3139 260.352C41.0179 261.072 39.6019 261.432 38.0659 261.432ZM38.0659 258.984C39.1939 258.984 40.1779 258.708 41.0179 258.156C41.8579 257.58 42.5059 256.788 42.9619 255.78C43.4179 254.772 43.6459 253.608 43.6459 252.288C43.6459 250.944 43.4179 249.768 42.9619 248.76C42.5059 247.728 41.8579 246.936 41.0179 246.384C40.1779 245.808 39.1939 245.52 38.0659 245.52C36.9379 245.52 35.9539 245.808 35.1139 246.384C34.2979 246.936 33.6499 247.728 33.1699 248.76C32.7139 249.768 32.4859 250.944 32.4859 252.288C32.4859 253.608 32.7139 254.772 33.1699 255.78C33.6499 256.788 34.2979 257.58 35.1139 258.156C35.9539 258.708 36.9379 258.984 38.0659 258.984ZM58.7879 261V243.504H61.2359L61.4879 247.644H61.5959C62.5079 246.228 63.6359 245.112 64.9799 244.296C66.3239 243.48 67.7999 243.072 69.4079 243.072C70.0559 243.072 70.6559 243.132 71.2079 243.252C71.7839 243.348 72.3359 243.528 72.8639 243.792L72.1799 246.348C71.5799 246.132 71.0639 245.976 70.6319 245.88C70.1999 245.784 69.6359 245.736 68.9399 245.736C67.6199 245.736 66.3479 246.12 65.1239 246.888C63.9239 247.632 62.7959 248.916 61.7399 250.74V261H58.7879ZM91.6778 261.432C89.9258 261.432 88.3298 261.072 86.8898 260.352C85.4738 259.632 84.3458 258.588 83.5058 257.22C82.6658 255.828 82.2458 254.16 82.2458 252.216C82.2458 250.32 82.6658 248.688 83.5058 247.32C84.3458 245.952 85.4378 244.908 86.7818 244.188C88.1498 243.444 89.6138 243.072 91.1738 243.072C92.8538 243.072 94.2818 243.42 95.4578 244.116C96.6578 244.788 97.5698 245.736 98.1938 246.96C98.8418 248.184 99.1658 249.624 99.1658 251.28C99.1658 251.616 99.1538 251.94 99.1298 252.252C99.1058 252.564 99.0698 252.84 99.0218 253.08H84.2258V250.776H97.2578L96.5018 251.604C96.5018 249.54 96.0218 247.992 95.0618 246.96C94.1258 245.928 92.8538 245.412 91.2458 245.412C90.1658 245.412 89.1578 245.676 88.2218 246.204C87.3098 246.732 86.5778 247.5 86.0258 248.508C85.4738 249.516 85.1978 250.752 85.1978 252.216C85.1978 253.728 85.4978 254.988 86.0978 255.996C86.6978 257.004 87.5138 257.772 88.5458 258.3C89.5778 258.804 90.7418 259.056 92.0378 259.056C93.0938 259.056 94.0418 258.912 94.8818 258.624C95.7458 258.312 96.5738 257.904 97.3658 257.4L98.4458 259.344C97.5818 259.92 96.5858 260.412 95.4578 260.82C94.3538 261.228 93.0938 261.432 91.6778 261.432ZM114.776 261V242.028C114.776 240.612 115.028 239.376 115.532 238.32C116.06 237.24 116.84 236.412 117.872 235.836C118.904 235.236 120.224 234.936 121.832 234.936C122.696 234.936 123.536 235.02 124.352 235.188C125.192 235.332 126.032 235.584 126.872 235.944L126.188 238.176C125.468 237.84 124.796 237.624 124.172 237.528C123.572 237.408 122.888 237.348 122.12 237.348C120.56 237.348 119.432 237.756 118.736 238.572C118.04 239.388 117.692 240.504 117.692 241.92V261H114.776ZM109.772 245.916V243.684L114.884 243.504H125.036V245.916H109.772ZM141.186 261.432C139.098 261.432 137.562 260.832 136.578 259.632C135.594 258.432 135.102 256.68 135.102 254.376V243.504H138.09V253.98C138.09 255.636 138.39 256.872 138.99 257.688C139.614 258.48 140.658 258.876 142.122 258.876C143.13 258.876 144.042 258.624 144.858 258.12C145.698 257.592 146.598 256.764 147.558 255.636V243.504H150.51V261H148.098L147.846 257.94H147.702C146.814 258.948 145.842 259.788 144.786 260.46C143.73 261.108 142.53 261.432 141.186 261.432ZM161.944 261V243.504H164.392L164.644 246.492H164.788C165.7 245.508 166.684 244.692 167.74 244.044C168.796 243.396 170.008 243.072 171.376 243.072C173.44 243.072 174.964 243.672 175.948 244.872C176.932 246.072 177.424 247.824 177.424 250.128V261H174.472V250.524C174.472 248.868 174.16 247.644 173.536 246.852C172.912 246.036 171.88 245.628 170.44 245.628C169.408 245.628 168.484 245.892 167.668 246.42C166.852 246.948 165.928 247.74 164.896 248.796V261H161.944ZM197.318 261.432C195.494 261.432 193.85 261.072 192.386 260.352C190.946 259.632 189.806 258.588 188.966 257.22C188.15 255.852 187.742 254.208 187.742 252.288C187.742 250.32 188.186 248.652 189.074 247.284C189.962 245.916 191.138 244.872 192.602 244.152C194.09 243.432 195.722 243.072 197.498 243.072C198.938 243.072 200.174 243.324 201.206 243.828C202.262 244.332 203.15 244.932 203.87 245.628L202.394 247.536C201.674 246.912 200.93 246.42 200.162 246.06C199.394 245.7 198.542 245.52 197.606 245.52C196.262 245.52 195.074 245.808 194.042 246.384C193.01 246.936 192.206 247.728 191.63 248.76C191.078 249.768 190.802 250.944 190.802 252.288C190.802 253.608 191.078 254.772 191.63 255.78C192.182 256.788 192.962 257.58 193.97 258.156C195.002 258.708 196.19 258.984 197.534 258.984C198.614 258.984 199.598 258.768 200.486 258.336C201.398 257.904 202.214 257.388 202.934 256.788L204.266 258.696C203.306 259.56 202.226 260.232 201.026 260.712C199.85 261.192 198.614 261.432 197.318 261.432ZM221.928 261.432C221.136 261.432 220.452 261.156 219.876 260.604C219.3 260.028 219.012 259.296 219.012 258.408C219.012 257.496 219.3 256.764 219.876 256.212C220.452 255.636 221.136 255.348 221.928 255.348C222.744 255.348 223.428 255.636 223.98 256.212C224.556 256.764 224.844 257.496 224.844 258.408C224.844 259.296 224.556 260.028 223.98 260.604C223.428 261.156 222.744 261.432 221.928 261.432ZM248.049 269.064C246.345 269.064 244.893 268.872 243.693 268.488C242.493 268.104 241.569 267.552 240.921 266.832C240.297 266.112 239.985 265.236 239.985 264.204C239.985 263.508 240.225 262.812 240.705 262.116C241.209 261.444 241.929 260.844 242.865 260.316V260.172C242.409 259.908 241.989 259.548 241.605 259.092C241.245 258.636 241.065 258.036 241.065 257.292C241.065 256.74 241.245 256.176 241.605 255.6C241.965 255 242.481 254.472 243.153 254.016V253.872C242.553 253.416 242.037 252.804 241.605 252.036C241.197 251.268 240.993 250.368 240.993 249.336C240.993 248.064 241.305 246.96 241.929 246.024C242.577 245.088 243.417 244.368 244.449 243.864C245.505 243.336 246.645 243.072 247.869 243.072C248.853 243.072 249.717 243.216 250.461 243.504H257.697V245.916H253.161C253.569 246.324 253.917 246.84 254.205 247.464C254.493 248.088 254.637 248.748 254.637 249.444C254.637 250.692 254.337 251.772 253.737 252.684C253.137 253.572 252.321 254.256 251.289 254.736C250.281 255.216 249.141 255.456 247.869 255.456C247.413 255.456 246.921 255.408 246.393 255.312C245.889 255.192 245.397 255.024 244.917 254.808C244.485 255.072 244.149 255.372 243.909 255.708C243.669 256.044 243.549 256.416 243.549 256.824C243.549 257.496 243.861 258 244.485 258.336C245.133 258.672 246.033 258.84 247.185 258.84H251.109C253.365 258.84 255.033 259.152 256.113 259.776C257.217 260.4 257.769 261.456 257.769 262.944C257.769 264.024 257.373 265.032 256.581 265.968C255.789 266.904 254.661 267.648 253.197 268.2C251.757 268.776 250.041 269.064 248.049 269.064ZM247.869 253.476C248.613 253.476 249.285 253.308 249.885 252.972C250.509 252.636 251.001 252.156 251.361 251.532C251.721 250.908 251.901 250.176 251.901 249.336C251.901 248.52 251.721 247.812 251.361 247.212C251.001 246.588 250.509 246.108 249.885 245.772C249.285 245.412 248.613 245.232 247.869 245.232C247.149 245.232 246.477 245.412 245.853 245.772C245.253 246.108 244.761 246.588 244.377 247.212C244.017 247.812 243.837 248.52 243.837 249.336C243.837 250.176 244.017 250.908 244.377 251.532C244.761 252.156 245.253 252.636 245.853 252.972C246.477 253.308 247.149 253.476 247.869 253.476ZM248.265 266.904C249.633 266.904 250.809 266.736 251.793 266.4C252.777 266.064 253.533 265.632 254.061 265.104C254.589 264.576 254.853 264.012 254.853 263.412C254.853 262.572 254.517 262.008 253.845 261.72C253.197 261.432 252.201 261.288 250.857 261.288H247.437C246.933 261.288 246.453 261.264 245.997 261.216C245.565 261.168 245.157 261.096 244.773 261C243.957 261.456 243.381 261.924 243.045 262.404C242.709 262.908 242.541 263.412 242.541 263.916C242.541 264.828 243.021 265.548 243.981 266.076C244.965 266.628 246.393 266.904 248.265 266.904ZM275.035 261V245.916H266.899V243.504H277.987V261H275.035ZM276.187 239.832C275.515 239.832 274.951 239.628 274.495 239.22C274.039 238.788 273.811 238.224 273.811 237.528C273.811 236.832 274.039 236.28 274.495 235.872C274.951 235.44 275.515 235.224 276.187 235.224C276.859 235.224 277.423 235.44 277.879 235.872C278.335 236.28 278.563 236.832 278.563 237.528C278.563 238.224 278.335 238.788 277.879 239.22C277.423 239.628 276.859 239.832 276.187 239.832ZM304.109 261.432C302.405 261.432 301.061 261.132 300.077 260.532C299.093 259.908 298.385 259.056 297.953 257.976C297.545 256.896 297.341 255.636 297.341 254.196V245.916H292.409V243.684L297.449 243.504L297.845 237.888H300.293V243.504H308.897V245.916H300.293V254.232C300.293 255.264 300.425 256.14 300.689 256.86C300.953 257.58 301.409 258.12 302.057 258.48C302.705 258.84 303.593 259.02 304.721 259.02C305.561 259.02 306.317 258.948 306.989 258.804C307.661 258.66 308.309 258.468 308.933 258.228L309.581 260.388C308.789 260.676 307.949 260.916 307.061 261.108C306.197 261.324 305.213 261.432 304.109 261.432ZM319.539 261V235.368H322.491V242.352L322.311 246.492H322.419C323.307 245.532 324.279 244.728 325.335 244.08C326.391 243.408 327.603 243.072 328.971 243.072C331.035 243.072 332.559 243.672 333.543 244.872C334.527 246.072 335.019 247.824 335.019 250.128V261H332.067V250.524C332.067 248.868 331.755 247.644 331.131 246.852C330.507 246.036 329.475 245.628 328.035 245.628C327.003 245.628 326.079 245.892 325.263 246.42C324.447 246.948 323.523 247.74 322.491 248.796V261H319.539ZM351.313 261.432C349.225 261.432 347.689 260.832 346.705 259.632C345.721 258.432 345.229 256.68 345.229 254.376V243.504H348.217V253.98C348.217 255.636 348.517 256.872 349.117 257.688C349.741 258.48 350.785 258.876 352.249 258.876C353.257 258.876 354.169 258.624 354.985 258.12C355.825 257.592 356.725 256.764 357.685 255.636V243.504H360.637V261H358.225L357.973 257.94H357.829C356.941 258.948 355.969 259.788 354.913 260.46C353.857 261.108 352.657 261.432 351.313 261.432ZM380.243 261.432C379.379 261.432 378.455 261.228 377.471 260.82C376.511 260.388 375.623 259.8 374.807 259.056H374.699L374.447 261H372.071V235.368H375.023V242.352L374.915 245.736H375.023C375.815 244.92 376.727 244.272 377.759 243.792C378.815 243.312 379.859 243.072 380.891 243.072C382.475 243.072 383.807 243.444 384.887 244.188C385.967 244.908 386.783 245.94 387.335 247.284C387.887 248.604 388.163 250.164 388.163 251.964C388.163 253.956 387.791 255.66 387.047 257.076C386.327 258.492 385.367 259.572 384.167 260.316C382.967 261.06 381.659 261.432 380.243 261.432ZM379.775 258.948C380.783 258.948 381.683 258.672 382.475 258.12C383.291 257.568 383.927 256.776 384.383 255.744C384.863 254.688 385.103 253.44 385.103 252C385.103 250.728 384.935 249.612 384.599 248.652C384.263 247.668 383.735 246.912 383.015 246.384C382.295 245.832 381.347 245.556 380.171 245.556C379.379 245.556 378.539 245.772 377.651 246.204C376.787 246.612 375.911 247.272 375.023 248.184V256.896C375.863 257.64 376.703 258.168 377.543 258.48C378.407 258.792 379.151 258.948 379.775 258.948ZM405.789 261.432C404.997 261.432 404.313 261.156 403.737 260.604C403.161 260.028 402.873 259.296 402.873 258.408C402.873 257.496 403.161 256.764 403.737 256.212C404.313 255.636 404.997 255.348 405.789 255.348C406.605 255.348 407.289 255.636 407.841 256.212C408.417 256.764 408.705 257.496 408.705 258.408C408.705 259.296 408.417 260.028 407.841 260.604C407.289 261.156 406.605 261.432 405.789 261.432ZM432.631 261V245.916H424.495V243.504H435.583V261H432.631ZM433.783 239.832C433.111 239.832 432.547 239.628 432.091 239.22C431.635 238.788 431.407 238.224 431.407 237.528C431.407 236.832 431.635 236.28 432.091 235.872C432.547 235.44 433.111 235.224 433.783 235.224C434.455 235.224 435.019 235.44 435.475 235.872C435.931 236.28 436.159 236.832 436.159 237.528C436.159 238.224 435.931 238.788 435.475 239.22C435.019 239.628 434.455 239.832 433.783 239.832ZM458.321 261.432C456.785 261.432 455.357 261.072 454.037 260.352C452.741 259.632 451.685 258.588 450.869 257.22C450.077 255.852 449.681 254.208 449.681 252.288C449.681 250.32 450.077 248.652 450.869 247.284C451.685 245.916 452.741 244.872 454.037 244.152C455.357 243.432 456.785 243.072 458.321 243.072C459.857 243.072 461.273 243.432 462.569 244.152C463.889 244.872 464.945 245.916 465.737 247.284C466.553 248.652 466.961 250.32 466.961 252.288C466.961 254.208 466.553 255.852 465.737 257.22C464.945 258.588 463.889 259.632 462.569 260.352C461.273 261.072 459.857 261.432 458.321 261.432ZM458.321 258.984C459.449 258.984 460.433 258.708 461.273 258.156C462.113 257.58 462.761 256.788 463.217 255.78C463.673 254.772 463.901 253.608 463.901 252.288C463.901 250.944 463.673 249.768 463.217 248.76C462.761 247.728 462.113 246.936 461.273 246.384C460.433 245.808 459.449 245.52 458.321 245.52C457.193 245.52 456.209 245.808 455.369 246.384C454.553 246.936 453.905 247.728 453.425 248.76C452.969 249.768 452.741 250.944 452.741 252.288C452.741 253.608 452.969 254.772 453.425 255.78C453.905 256.788 454.553 257.58 455.369 258.156C456.209 258.708 457.193 258.984 458.321 258.984ZM477.351 266.76L489.159 235.44H491.823L480.015 266.76H477.351ZM512.509 261.432C510.685 261.432 509.041 261.072 507.577 260.352C506.137 259.632 504.997 258.588 504.157 257.22C503.341 255.852 502.933 254.208 502.933 252.288C502.933 250.32 503.377 248.652 504.265 247.284C505.153 245.916 506.329 244.872 507.793 244.152C509.281 243.432 510.913 243.072 512.689 243.072C514.129 243.072 515.365 243.324 516.397 243.828C517.453 244.332 518.341 244.932 519.061 245.628L517.585 247.536C516.865 246.912 516.121 246.42 515.353 246.06C514.585 245.7 513.733 245.52 512.797 245.52C511.453 245.52 510.265 245.808 509.233 246.384C508.201 246.936 507.397 247.728 506.821 248.76C506.269 249.768 505.993 250.944 505.993 252.288C505.993 253.608 506.269 254.772 506.821 255.78C507.373 256.788 508.153 257.58 509.161 258.156C510.193 258.708 511.381 258.984 512.725 258.984C513.805 258.984 514.789 258.768 515.677 258.336C516.589 257.904 517.405 257.388 518.125 256.788L519.457 258.696C518.497 259.56 517.417 260.232 516.217 260.712C515.041 261.192 513.805 261.432 512.509 261.432ZM535.175 261.432C534.095 261.432 533.099 261.24 532.187 260.856C531.275 260.448 530.555 259.872 530.027 259.128C529.499 258.384 529.235 257.496 529.235 256.464C529.235 254.496 530.219 253.008 532.187 252C534.155 250.968 537.395 250.272 541.907 249.912C541.883 249.12 541.715 248.388 541.403 247.716C541.115 247.044 540.635 246.516 539.963 246.132C539.291 245.724 538.391 245.52 537.263 245.52C536.519 245.52 535.775 245.628 535.031 245.844C534.311 246.036 533.615 246.3 532.943 246.636C532.295 246.948 531.695 247.272 531.143 247.608L529.991 245.592C530.567 245.208 531.263 244.824 532.079 244.44C532.919 244.032 533.819 243.708 534.779 243.468C535.739 243.204 536.735 243.072 537.767 243.072C539.375 243.072 540.695 243.372 541.727 243.972C542.783 244.572 543.563 245.412 544.067 246.492C544.595 247.548 544.859 248.808 544.859 250.272V261H542.447L542.195 258.624H542.087C541.127 259.392 540.047 260.052 538.847 260.604C537.647 261.156 536.423 261.432 535.175 261.432ZM535.967 259.056C536.975 259.056 537.971 258.828 538.955 258.372C539.939 257.916 540.923 257.28 541.907 256.464V251.856C539.411 252.072 537.443 252.372 536.003 252.756C534.587 253.14 533.579 253.632 532.979 254.232C532.403 254.808 532.115 255.48 532.115 256.248C532.115 256.896 532.295 257.436 532.655 257.868C533.015 258.276 533.483 258.576 534.059 258.768C534.659 258.96 535.295 259.056 535.967 259.056ZM555.933 261V243.504H558.381L558.633 246.492H558.777C559.689 245.508 560.673 244.692 561.729 244.044C562.785 243.396 563.997 243.072 565.365 243.072C567.429 243.072 568.953 243.672 569.937 244.872C570.921 246.072 571.413 247.824 571.413 250.128V261H568.461V250.524C568.461 248.868 568.149 247.644 567.525 246.852C566.901 246.036 565.869 245.628 564.429 245.628C563.397 245.628 562.473 245.892 561.657 246.42C560.841 246.948 559.917 247.74 558.885 248.796V261H555.933ZM587.707 261.432C586.627 261.432 585.631 261.24 584.719 260.856C583.807 260.448 583.087 259.872 582.559 259.128C582.031 258.384 581.767 257.496 581.767 256.464C581.767 254.496 582.751 253.008 584.719 252C586.687 250.968 589.927 250.272 594.439 249.912C594.415 249.12 594.247 248.388 593.935 247.716C593.647 247.044 593.167 246.516 592.495 246.132C591.823 245.724 590.923 245.52 589.795 245.52C589.051 245.52 588.307 245.628 587.563 245.844C586.843 246.036 586.147 246.3 585.475 246.636C584.827 246.948 584.227 247.272 583.675 247.608L582.523 245.592C583.099 245.208 583.795 244.824 584.611 244.44C585.451 244.032 586.351 243.708 587.311 243.468C588.271 243.204 589.267 243.072 590.299 243.072C591.907 243.072 593.227 243.372 594.259 243.972C595.315 244.572 596.095 245.412 596.599 246.492C597.127 247.548 597.391 248.808 597.391 250.272V261H594.979L594.727 258.624H594.619C593.659 259.392 592.579 260.052 591.379 260.604C590.179 261.156 588.955 261.432 587.707 261.432ZM588.499 259.056C589.507 259.056 590.503 258.828 591.487 258.372C592.471 257.916 593.455 257.28 594.439 256.464V251.856C591.943 252.072 589.975 252.372 588.535 252.756C587.119 253.14 586.111 253.632 585.511 254.232C584.935 254.808 584.647 255.48 584.647 256.248C584.647 256.896 584.827 257.436 585.187 257.868C585.547 258.276 586.015 258.576 586.591 258.768C587.191 258.96 587.827 259.056 588.499 259.056ZM619.733 261.432C617.885 261.432 616.469 260.904 615.485 259.848C614.501 258.768 614.009 257.196 614.009 255.132V237.78H608.033V235.368H616.961V255.348C616.961 256.62 617.273 257.544 617.897 258.12C618.521 258.696 619.349 258.984 620.381 258.984C620.885 258.984 621.401 258.924 621.929 258.804C622.457 258.66 623.045 258.444 623.693 258.156L624.449 260.388C623.657 260.676 622.913 260.916 622.217 261.108C621.521 261.324 620.693 261.432 619.733 261.432ZM636.099 268.524C635.715 268.524 635.307 268.488 634.875 268.416C634.467 268.344 634.107 268.26 633.795 268.164L634.407 265.824C634.647 265.896 634.899 265.956 635.163 266.004C635.451 266.052 635.727 266.076 635.991 266.076C637.215 266.076 638.211 265.716 638.979 264.996C639.747 264.3 640.347 263.412 640.779 262.332L641.319 261.036L633.147 243.504H636.135L640.419 253.188C640.755 253.956 641.103 254.784 641.463 255.672C641.847 256.536 642.219 257.4 642.579 258.264H642.723C643.035 257.424 643.347 256.572 643.659 255.708C643.995 254.82 644.307 253.98 644.595 253.188L648.411 243.504H651.219L643.515 262.44C643.083 263.592 642.543 264.624 641.895 265.536C641.247 266.472 640.443 267.204 639.483 267.732C638.547 268.26 637.419 268.524 636.099 268.524Z" fill="url(#paint22_radial_22_19)"/>
<defs>
<linearGradient id="paint0_linear_22_19" x1="468.971" y1="1" x2="468.971" y2="181" gradientUnits="userSpaceOnUse">
<stop stop-color="#00B2FF"/>
<stop offset="1" stop-color="#00FFB2" stop-opacity="0"/>
</linearGradient>
<linearGradient id="paint1_linear_22_19" x1="468.971" y1="1" x2="468.971" y2="181" gradientUnits="userSpaceOnUse">
<stop stop-color="#00B2FF"/>
<stop offset="1" stop-color="#00FFB2" stop-opacity="0"/>
</linearGradient>
<linearGradient id="paint2_linear_22_19" x1="468.971" y1="1" x2="468.971" y2="181" gradientUnits="userSpaceOnUse">
<stop stop-color="#00B2FF"/>
<stop offset="1" stop-color="#00FFB2" stop-opacity="0"/>
</linearGradient>
<linearGradient id="paint3_linear_22_19" x1="468.971" y1="1" x2="468.971" y2="181" gradientUnits="userSpaceOnUse">
<stop stop-color="#00B2FF"/>
<stop offset="1" stop-color="#00FFB2" stop-opacity="0"/>
</linearGradient>
<linearGradient id="paint4_linear_22_19" x1="468.971" y1="1" x2="468.971" y2="181" gradientUnits="userSpaceOnUse">
<stop stop-color="#00B2FF"/>
<stop offset="1" stop-color="#00FFB2" stop-opacity="0"/>
</linearGradient>
<linearGradient id="paint5_linear_22_19" x1="468.971" y1="1" x2="468.971" y2="181" gradientUnits="userSpaceOnUse">
<stop stop-color="#00B2FF"/>
<stop offset="1" stop-color="#00FFB2" stop-opacity="0"/>
</linearGradient>
<linearGradient id="paint6_linear_22_19" x1="468.971" y1="1" x2="468.971" y2="181" gradientUnits="userSpaceOnUse">
<stop stop-color="#00B2FF"/>
<stop offset="1" stop-color="#00FFB2" stop-opacity="0"/>
</linearGradient>
<linearGradient id="paint7_linear_22_19" x1="468.971" y1="1" x2="468.971" y2="181" gradientUnits="userSpaceOnUse">
<stop stop-color="#00B2FF"/>
<stop offset="1" stop-color="#00FFB2" stop-opacity="0"/>
</linearGradient>
<linearGradient id="paint8_linear_22_19" x1="468.971" y1="1" x2="468.971" y2="181" gradientUnits="userSpaceOnUse">
<stop stop-color="#00B2FF"/>
<stop offset="1" stop-color="#00FFB2" stop-opacity="0"/>
</linearGradient>
<linearGradient id="paint9_linear_22_19" x1="468.971" y1="1" x2="468.971" y2="181" gradientUnits="userSpaceOnUse">
<stop stop-color="#00B2FF"/>
<stop offset="1" stop-color="#00FFB2" stop-opacity="0"/>
</linearGradient>
<linearGradient id="paint10_linear_22_19" x1="468.971" y1="1" x2="468.971" y2="181" gradientUnits="userSpaceOnUse">
<stop stop-color="#00B2FF"/>
<stop offset="1" stop-color="#00FFB2" stop-opacity="0"/>
</linearGradient>
<linearGradient id="paint11_linear_22_19" x1="468.971" y1="1" x2="468.971" y2="181" gradientUnits="userSpaceOnUse">
<stop stop-color="#00B2FF"/>
<stop offset="1" stop-color="#00FFB2" stop-opacity="0"/>
</linearGradient>
<linearGradient id="paint12_linear_22_19" x1="468.971" y1="1" x2="468.971" y2="181" gradientUnits="userSpaceOnUse">
<stop stop-color="#00B2FF"/>
<stop offset="1" stop-color="#00FFB2" stop-opacity="0"/>
</linearGradient>
<linearGradient id="paint13_linear_22_19" x1="468.971" y1="1" x2="468.971" y2="181" gradientUnits="userSpaceOnUse">
<stop stop-color="#00B2FF"/>
<stop offset="1" stop-color="#00FFB2" stop-opacity="0"/>
</linearGradient>
<linearGradient id="paint14_linear_22_19" x1="468.971" y1="1" x2="468.971" y2="181" gradientUnits="userSpaceOnUse">
<stop stop-color="#00B2FF"/>
<stop offset="1" stop-color="#00FFB2" stop-opacity="0"/>
</linearGradient>
<linearGradient id="paint15_linear_22_19" x1="468.971" y1="1" x2="468.971" y2="181" gradientUnits="userSpaceOnUse">
<stop stop-color="#00B2FF"/>
<stop offset="1" stop-color="#00FFB2" stop-opacity="0"/>
</linearGradient>
<linearGradient id="paint16_linear_22_19" x1="468.971" y1="1" x2="468.971" y2="181" gradientUnits="userSpaceOnUse">
<stop stop-color="#00B2FF"/>
<stop offset="1" stop-color="#00FFB2" stop-opacity="0"/>
</linearGradient>
<linearGradient id="paint17_linear_22_19" x1="468.971" y1="1" x2="468.971" y2="181" gradientUnits="userSpaceOnUse">
<stop stop-color="#00B2FF"/>
<stop offset="1" stop-color="#00FFB2" stop-opacity="0"/>
</linearGradient>
<linearGradient id="paint18_linear_22_19" x1="468.971" y1="1" x2="468.971" y2="181" gradientUnits="userSpaceOnUse">
<stop stop-color="#00B2FF"/>
<stop offset="1" stop-color="#00FFB2" stop-opacity="0"/>
</linearGradient>
<linearGradient id="paint19_linear_22_19" x1="468.971" y1="1" x2="468.971" y2="181" gradientUnits="userSpaceOnUse">
<stop stop-color="#00B2FF"/>
<stop offset="1" stop-color="#00FFB2" stop-opacity="0"/>
</linearGradient>
<linearGradient id="paint20_linear_22_19" x1="468.971" y1="1" x2="468.971" y2="181" gradientUnits="userSpaceOnUse">
<stop stop-color="#00B2FF"/>
<stop offset="1" stop-color="#00FFB2" stop-opacity="0"/>
</linearGradient>
<linearGradient id="paint21_linear_22_19" x1="1" y1="91" x2="937" y2="91" gradientUnits="userSpaceOnUse">
<stop stop-color="#00FF57"/>
<stop offset="1" stop-color="#9E00FF"/>
</linearGradient>
<radialGradient id="paint22_radial_22_19" cx="0" cy="0" r="1" gradientUnits="userSpaceOnUse" gradientTransform="translate(327 226) rotate(-90) scale(120 869.334)">
<stop stop-color="#00FFD1"/>
<stop offset="1" stop-color="#0075FF"/>
</radialGradient>
</defs>
</svg>
