<svg width="80" height="80" viewBox="0 0 80 80" fill="none" xmlns="http://www.w3.org/2000/svg">
<path fill-rule="evenodd" clip-rule="evenodd" d="M40 9.59918V5.8144C43.098 2.15957 47.513 0 52.2255 0H67.366C68.7465 0 69.866 1.19392 69.866 2.66667V5.33333H77.5C78.8805 5.33333 80 6.52725 80 8V77.3333C80 78.8059 78.8805 80 77.5 80H0V0H30.812V0.429815C30.812 1.63396 31.0492 2.82631 31.51 3.93879C31.9708 5.05127 32.6462 6.06209 33.4976 6.91355C34.3491 7.765 35.3599 8.44042 36.4724 8.90122C37.5849 9.36203 38.7772 9.5992 39.9814 9.5992L40 9.59918ZM38.1934 71.4496H40V58.6173L36.881 43.1248H31.921L27.5741 62.3891H27.5082L23.8834 43.1248H18.5824L24.6628 71.4496H30.0212L34.1932 52.171H34.2964L38.1934 71.4496ZM64.866 7.80885C64.8615 7.872 64.8595 7.93573 64.8595 8C64.8595 8.06427 64.8615 8.128 64.866 8.19115V63.6864H53.101C49.178 63.6864 45.4655 65.1317 42.5 67.6507V11.0874C44.6315 7.50224 48.294 5.33333 52.2255 5.33333H64.866V7.80885ZM69.866 10.6667H75V74.6667H43.135C45.3925 71.1509 49.1065 69.0197 53.101 69.0197H67.366C68.7465 69.0197 69.866 67.8256 69.866 66.3531V10.6667Z" fill="#00CEFF"/>
</svg>
